Coordinates
version=1
nRows=25
nColumns=33
inDegrees=yes

Units are S.I. units (second, meters, Newtons, ...)
Angles are in degrees.

endheader
time	ground_thorax_rot_x	ground_thorax_rot_y	ground_thorax_rot_z	ground_thorax_tx	ground_thorax_ty	ground_thorax_tz	clav_prot_r	clav_elev_r	scapula_abduction_r	scapula_elevation_r	scapula_upward_rot_r	scapula_winging_r	shoulder_elv_r	plane_of_elev_r	axial_rot_r	elbow_flexion_r	pro_sup_r	wrist_flex_r	wrist_dev_r	clav_prot_l	clav_elev_l	scapula_abduction_l	scapula_elevation_l	scapula_upward_rot_l	scapula_winging_l	shoulder_elv_l	plane_of_elev_l	axial_rot_l	elbow_flexion_l	pro_sup_l	wrist_flex_l	wrist_dev_l	
3.6700	19.789406	35.403913	57.859921	-50.571017	774.765509	9.858903	13.071921	36.927211	32.848061	45.000000	-43.354633	-1882.927550	-2099.997222	30.588035	59.984284	1448.222034	29.906973	16.811127	11.405234	7.325513	-45.000000	-35.438236	45.000000	-45.000000	1535.814169	-3702.520379	146.388411	125.063550	-712.744730	28.242407	9.108015	-18.658220	
3.6800	19.769155	35.440745	57.818793	-50.824756	774.564070	9.957557	13.121295	36.950063	32.809426	45.000000	-43.413229	-1882.881579	-2099.969303	30.596635	59.812187	1448.172040	29.824893	16.822720	11.451935	7.450978	-45.000000	-35.447021	45.000000	-45.000000	1535.822843	-3702.518899	146.406211	124.976319	-712.764292	28.032620	9.118697	-18.639469	
3.6900	19.733590	35.485512	57.791577	-51.101792	774.357425	10.049830	13.232008	37.063365	32.738493	45.000000	-43.445669	-1882.842608	-2099.943721	30.616073	59.619133	1448.113849	29.753050	16.866293	11.530743	7.627233	-45.000000	-35.443569	45.000000	-45.000000	1535.796842	-3702.488869	146.455666	124.894576	-712.782925	27.821177	9.117936	-18.653224	
3.7000	19.733127	35.523463	57.729332	-51.429330	774.137632	10.130960	13.274397	37.119099	32.697314	45.000000	-43.448265	-1882.824783	-2099.924469	30.619773	59.529127	1448.079495	29.725772	16.891346	11.562070	7.699784	-45.000000	-35.438324	45.000000	-45.000000	1535.784897	-3702.478506	146.479902	124.862029	-712.795809	27.607447	9.136255	-18.653045	
3.7100	19.760213	35.553933	57.635174	-51.809084	773.906084	10.198206	13.288007	37.146470	32.674931	45.000000	-43.426224	-1882.820676	-2099.912820	30.616559	59.493783	1448.057803	29.734323	16.904731	11.565658	7.732479	-45.000000	-35.433865	45.000000	-45.000000	1535.784471	-3702.476900	146.480831	124.865069	-712.806049	27.398073	9.160246	-18.651576	
3.7200	19.800539	35.585702	57.531383	-52.244540	773.662989	10.249594	13.291389	37.183490	32.659445	45.000000	-43.386658	-1882.830488	-2099.900409	30.611995	59.490956	1448.042854	29.774886	16.923743	11.559646	7.730125	-45.000000	-35.424872	45.000000	-45.000000	1535.775668	-3702.475403	146.487098	124.908608	-712.812945	27.197355	9.189525	-18.661322	
3.7300	19.865032	35.609727	57.398498	-52.730719	773.409974	10.284727	13.277244	37.190228	32.656760	45.000000	-43.326327	-1882.845716	-2099.892026	30.603689	59.500694	1448.034671	29.838405	16.929846	11.535636	7.718016	-45.000000	-35.419791	45.000000	-45.000000	1535.785286	-3702.480877	146.464660	124.977147	-712.819577	27.013046	9.217941	-18.670121	
3.7400	19.927831	35.639113	57.272190	-53.258430	773.149756	10.305052	13.276933	37.236433	32.644509	45.000000	-43.255527	-1882.870187	-2099.877040	30.601086	59.494773	1448.031923	29.911361	16.954137	11.522885	7.707754	-45.000000	-35.405782	45.000000	-45.000000	1535.773779	-3702.473126	146.462080	125.077643	-712.825742	26.845910	9.242278	-18.694380	
3.7500	20.004658	35.661572	57.130153	-53.818216	772.883985	10.312838	13.266662	37.251605	32.647262	45.000000	-43.192309	-1882.895378	-2099.859887	30.598329	59.480264	1448.039044	29.987960	16.967206	11.498576	7.701253	-45.000000	-35.398647	45.000000	-45.000000	1535.779757	-3702.471609	146.437422	125.197205	-712.830279	26.695979	9.264118	-18.711645	
3.7600	20.072228	35.685987	57.003485	-54.402011	772.616181	10.310482	13.266739	37.285985	32.643431	45.000000	-43.138089	-1882.929060	-2099.841200	30.607700	59.441293	1448.048236	30.059888	16.992050	11.482498	7.691874	-45.000000	-35.386197	45.000000	-45.000000	1535.778972	-3702.461401	146.423021	125.335497	-712.834403	26.557801	9.287583	-18.734599	
3.7700	20.151230	35.703380	56.859763	-55.004137	772.350700	10.299509	13.259667	37.291737	32.646787	45.000000	-43.077716	-1882.959723	-2099.821715	30.609999	59.398014	1448.067913	30.125732	17.006917	11.460234	7.688847	-45.000000	-35.380443	45.000000	-45.000000	1535.792687	-3702.456233	146.383898	125.480753	-712.834728	26.425873	9.308257	-18.747018	
3.7800	20.223211	35.721537	56.725602	-55.621579	772.094673	10.280841	13.260679	37.311903	32.646992	45.000000	-43.025539	-1883.004692	-2099.807284	30.625518	59.344278	1448.089630	30.180119	17.030247	11.441785	7.679376	-45.000000	-35.372493	45.000000	-45.000000	1535.800903	-3702.442474	146.346919	125.643813	-712.834720	26.293394	9.333054	-18.762216	
3.7900	20.306993	35.736244	56.579126	-56.253073	771.855039	10.255224	13.258494	37.313506	32.658842	45.000000	-42.974961	-1883.039901	-2099.783142	30.626590	59.296101	1448.118627	30.223280	17.046971	11.423952	7.677096	-45.000000	-35.372346	45.000000	-45.000000	1535.813235	-3702.435729	146.298134	125.815939	-712.826458	26.155489	9.355649	-18.770832	
3.8000	20.390610	35.747419	56.439607	-56.898280	771.639466	10.223591	13.260792	37.314663	32.678378	45.000000	-42.945317	-1883.089186	-2099.770465	30.649752	59.238221	1448.138092	30.249766	17.063488	11.405370	7.670186	-45.000000	-35.377013	45.000000	-45.000000	1535.832826	-3702.428562	146.244015	126.000933	-712.818002	26.010971	9.384347	-18.782616	
3.8100	20.488736	35.756593	56.287995	-57.557133	771.453465	10.187475	13.261148	37.315865	32.698407	45.000000	-42.894630	-1883.122267	-2099.742120	30.651127	59.192121	1448.162826	30.260108	17.079206	11.395797	7.669013	-45.000000	-35.383550	45.000000	-45.000000	1535.840727	-3702.422924	146.190056	126.196890	-712.800169	25.859236	9.407833	-18.792714	
3.8200	20.588004	35.760239	56.141154	-58.229834	771.301341	10.149000	13.264816	37.317656	32.731929	45.000000	-42.877566	-1883.184735	-2099.729042	30.684624	59.142762	1448.187352	30.247552	17.094987	11.378546	7.663501	-45.000000	-35.392577	45.000000	-45.000000	1535.855171	-3702.410068	146.125413	126.413852	-712.780259	25.702820	9.433013	-18.806958	
3.8300	20.689526	35.763407	56.004884	-58.916938	771.185215	10.110771	13.275005	37.320787	32.767772	45.000000	-42.874948	-1883.231031	-2099.689200	30.706384	59.086028	1448.219541	30.210703	17.112470	11.370534	7.663612	-45.000000	-35.400773	45.000000	-45.000000	1535.860036	-3702.393256	146.072111	126.638910	-712.748085	25.546678	9.453017	-18.822386	
3.8400	20.791353	35.758409	55.876935	-59.619706	771.106494	10.075385	13.287019	37.313951	32.814785	45.000000	-42.905549	-1883.294937	-2099.657437	30.755697	59.011634	1448.247593	30.146577	17.127147	11.357648	7.662135	-45.000000	-35.413371	45.000000	-45.000000	1535.880647	-3702.372136	146.004281	126.869164	-712.711943	25.397365	9.473201	-18.840915	
3.8500	20.895758	35.752685	55.753265	-60.340253	771.065760	10.045175	13.305803	37.318372	32.852733	45.000000	-42.920296	-1883.339769	-2099.597746	30.783863	58.934114	1448.290727	30.057226	17.147519	11.356102	7.661807	-45.000000	-35.419515	45.000000	-45.000000	1535.886006	-3702.339056	145.946191	127.106900	-712.661786	25.258903	9.485784	-18.861895	
3.8600	21.006747	35.740396	55.625865	-61.081709	771.063118	10.022100	13.324986	37.322187	32.902881	45.000000	-42.955433	-1883.402091	-2099.542354	30.831032	58.859539	1448.337543	29.941921	17.166091	11.346663	7.659443	-45.000000	-35.426908	45.000000	-45.000000	1535.895111	-3702.300785	145.875889	127.366217	-712.605012	25.133958	9.494924	-18.885776	
3.8700	21.126924	35.726386	55.491195	-61.847950	771.098045	10.007565	13.347851	37.325990	32.951515	45.000000	-42.964040	-1883.451257	-2099.475267	30.856911	58.783136	1448.383938	29.804844	17.189069	11.351715	7.657311	-45.000000	-35.435675	45.000000	-45.000000	1535.896140	-3702.260674	145.803248	127.635706	-712.537809	25.026746	9.500080	-18.912916	
3.8800	21.264669	35.703720	55.332591	-62.643252	771.169380	10.002315	13.363469	37.333988	33.009890	45.000000	-42.960030	-1883.506389	-2099.416217	30.885530	58.722121	1448.423557	29.650716	17.209691	11.354772	7.652873	-45.000000	-35.448319	45.000000	-45.000000	1535.889079	-3702.220748	145.717851	127.928628	-712.467833	24.936675	9.498003	-18.941424	
3.8900	21.415968	35.675381	55.155934	-63.472198	771.275405	10.006295	13.381325	37.340977	33.070411	45.000000	-42.924498	-1883.563171	-2099.359397	30.904985	58.664152	1448.458979	29.483460	17.232404	11.365251	7.646022	-45.000000	-35.465518	45.000000	-45.000000	1535.880329	-3702.180083	145.618320	128.235577	-712.390990	24.865400	9.493035	-18.972652	
3.9000	21.582304	35.639695	54.955782	-64.339689	771.413934	10.018610	13.393772	37.359096	33.134782	45.000000	-42.877910	-1883.627084	-2099.302926	30.930118	58.618747	1448.495107	29.305852	17.251302	11.366853	7.638324	-45.000000	-35.483480	45.000000	-45.000000	1535.861752	-3702.135381	145.511092	128.565644	-712.309176	24.809856	9.477097	-19.004115	
3.9100	21.760134	35.598643	54.741600	-65.250648	771.582733	10.037558	13.408626	37.364633	33.210727	45.000000	-42.822002	-1883.704721	-2099.251686	30.960018	58.562289	1448.528255	29.121205	17.272794	11.372178	7.630134	-45.000000	-35.508386	45.000000	-45.000000	1535.856319	-3702.092072	145.388359	128.905546	-712.219729	24.770692	9.458914	-19.038078	
